<svg width="95" height="29" viewBox="0 0 95 29" fill="none" xmlns="http://www.w3.org/2000/svg">
<g clip-path="url(#clip0_4_43)">
<mask id="mask0_4_43" style="mask-type:luminance" maskUnits="userSpaceOnUse" x="0" y="0" width="95" height="29">
<path d="M95 0H0V29H95V0Z" fill="white"/>
</mask>
<g mask="url(#mask0_4_43)">
<mask id="mask1_4_43" style="mask-type:luminance" maskUnits="userSpaceOnUse" x="9" y="6" width="77" height="17">
<path d="M86 6H9V22.5696H86V6Z" fill="white"/>
</mask>
<g mask="url(#mask1_4_43)">
<path d="M78.0076 9.1775C78.5535 8.8266 79.1968 8.65117 79.957 8.65117C81.614 8.65117 82.7056 9.31394 83.2709 10.6395L85.5322 9.37243C85.0449 8.35876 84.3041 7.57902 83.3099 6.9942C82.3352 6.42888 81.2046 6.13647 79.957 6.13647C78.378 6.13647 77.0719 6.56533 76.0388 7.44255C75.0056 8.30027 74.4793 9.41141 74.4793 10.7565C74.4793 11.7896 74.7717 12.6279 75.376 13.2907C75.9803 13.9534 76.7016 14.4018 77.5593 14.6552C78.417 14.9086 79.2552 15.162 80.0935 15.4155C80.9317 15.6689 81.653 15.9808 82.2573 16.3317C82.8616 16.702 83.154 17.1699 83.154 17.7742C83.154 18.4955 82.8616 19.0218 82.2963 19.3727C81.7114 19.7041 80.9902 19.8795 80.0935 19.8795C79.1383 19.8795 78.3195 19.6651 77.6373 19.2362C76.955 18.8074 76.4871 18.2226 76.2532 17.4623L73.9335 18.7879C74.3818 19.8795 75.1421 20.7567 76.2337 21.4195C77.3059 22.0823 78.5925 22.4137 80.113 22.4137C81.8089 22.4137 83.193 21.9848 84.2846 21.1466C85.3763 20.3084 85.9026 19.1777 85.9026 17.7742C85.9026 16.702 85.6102 15.8053 85.0254 15.1231C84.4406 14.4408 83.7193 13.9729 82.8616 13.7195C82.0038 13.4661 81.1656 13.2127 80.3274 12.9788C79.4892 12.7253 78.7679 12.4329 78.1441 12.082C77.5398 11.7312 77.2279 11.2633 77.2279 10.6785C77.1889 10.0352 77.4618 9.52837 78.0076 9.1775ZM64.7714 9.1775C65.3173 8.8266 65.9606 8.65117 66.7208 8.65117C68.3778 8.65117 69.4694 9.31394 70.0347 10.6395L72.296 9.37243C71.8087 8.35876 71.0679 7.57902 70.0737 6.9942C69.099 6.42888 67.9684 6.13647 66.7208 6.13647C65.1613 6.13647 63.8357 6.56533 62.8026 7.44255C61.7694 8.30027 61.2431 9.41141 61.2431 10.7565C61.2431 11.7896 61.5355 12.6279 62.1398 13.2907C62.7441 13.9534 63.4654 14.4018 64.3231 14.6552C65.1808 14.9086 66.019 15.162 66.8573 15.4155C67.6955 15.6689 68.4168 15.9808 69.0211 16.3317C69.6254 16.702 69.9178 17.1699 69.9178 17.7742C69.9178 18.4955 69.6254 19.0218 69.06 19.3727C68.4752 19.7041 67.754 19.8795 66.8573 19.8795C65.9021 19.8795 65.0833 19.6651 64.4011 19.2362C63.7188 18.8074 63.2509 18.2226 63.017 17.4623L60.6973 18.7879C61.1456 19.8795 61.9059 20.7567 62.9975 21.4195C64.0697 22.0823 65.3562 22.4137 66.8768 22.4137C68.5727 22.4137 69.9568 21.9848 71.0484 21.1466C72.14 20.3084 72.6664 19.1777 72.6664 17.7742C72.6664 16.702 72.374 15.8053 71.7892 15.1231C71.2044 14.4408 70.4831 13.9729 69.6254 13.7195C68.7676 13.4661 67.9294 13.2127 67.0912 12.9788C66.253 12.7253 65.5317 12.4329 64.9079 12.082C64.3036 11.7312 63.9917 11.2633 63.9917 10.6785C63.9722 10.0352 64.2451 9.52837 64.7714 9.1775Z" fill="#1D1D1B"/>
<path d="M22.4897 14.2848C22.4897 17.3063 20.0724 19.7431 17.0704 19.7431C14.0879 19.7431 11.6512 17.3063 11.6512 14.2848C11.6512 11.2633 14.0684 8.8266 17.0704 8.8266C20.0724 8.8266 22.4897 11.2633 22.4897 14.2848ZM25.2773 22.4332V6.13647H22.6066V8.33926C21.1641 6.9747 19.2147 6.13647 17.0899 6.13647C12.6259 6.13647 9.01953 9.78179 9.01953 14.2848C9.01953 18.7879 12.6259 22.4332 17.0899 22.4332C19.2342 22.4332 21.1641 21.595 22.6066 20.2304V22.4332H25.2773Z" fill="#1D1D1B"/>
<path d="M27.266 6.13647H25.96V22.4332H27.266V6.13647Z" fill="#1D1D1B"/>
<path d="M29.7607 6.13647H28.2012V22.4332H29.7607V6.13647Z" fill="#1D1D1B"/>
<path d="M41.8467 6.13647L37.6361 11.7896L33.445 6.13647H30.0726L35.9597 14.0509L29.7217 22.4332H33.0551L37.6166 16.2732L42.1976 22.4332H45.531L39.2931 14.0314L45.1607 6.13647H41.8467Z" fill="#1D1D1B"/>
<path d="M55.3163 9.82078C56.2715 10.581 56.8758 11.6922 57.1097 13.1737H46.4662C46.7001 11.8091 47.3044 10.7175 48.2791 9.89876C49.2538 9.08003 50.4819 8.67065 51.9829 8.67065C53.2305 8.67065 54.3611 9.06053 55.3163 9.82078ZM59.7998 15.5129C59.8583 15.1036 59.8973 14.6942 59.8973 14.3043C59.8973 12.0626 59.1565 10.1327 57.675 8.5342C56.1935 6.93572 54.2831 6.13647 51.9439 6.13647C49.4877 6.13647 47.4603 6.91622 45.9203 8.45622C44.3608 9.99622 43.6006 11.9456 43.6006 14.2848C43.6006 16.6436 44.3998 18.5929 45.9788 20.1134C47.5578 21.6534 49.6241 22.4137 52.1388 22.4137C55.2578 22.4137 57.597 21.2441 59.1565 18.9048L56.7978 17.5988C55.8426 19.0998 54.3026 19.86 52.2168 19.86C50.7158 19.86 49.4292 19.4701 48.4155 18.7099C47.3824 17.9496 46.7391 16.8775 46.4467 15.4934H59.7998V15.5129Z" fill="#1D1D1B"/>
</g>
</g>
</g>
<defs>
<clipPath id="clip0_4_43">
<rect width="95" height="29" fill="white"/>
</clipPath>
</defs>
</svg>
