<svg width="150" height="50" viewBox="0 0 150 50" fill="none" xmlns="http://www.w3.org/2000/svg">
<g clip-path="url(#clip0_2313_46)">
<path d="M38.8832 22.4292C39.1459 22.4292 39.2931 22.701 39.23 22.9388L33.9751 44.1846C33.9331 44.3545 33.765 44.4904 33.5968 44.4904H24.9053C24.7266 44.4904 24.5795 44.3431 24.5374 44.1733L22.2673 34.3545C22.2043 34.06 22.0571 34.06 21.9836 34.3545L19.787 44.1733C19.745 44.3431 19.6189 44.4904 19.4192 44.4904H10.591C10.4018 44.4904 10.2547 44.3545 10.2127 44.1846L4.99985 22.9049C4.95781 22.7237 5.08392 22.4292 5.36769 22.4292H14.0067C14.1643 22.4292 14.322 22.5311 14.364 22.7689L16.1822 33.222C16.2242 33.4824 16.4344 33.4824 16.487 33.222L18.4313 22.7689C18.4733 22.5877 18.5994 22.4405 18.7991 22.4405H25.5674C25.746 22.4405 25.8932 22.5877 25.9247 22.7576L27.7639 33.2333C27.8059 33.4938 27.9951 33.4938 28.0372 33.2333L30.0025 22.7576C30.034 22.5877 30.1916 22.4405 30.3598 22.4405H38.8727L38.8832 22.4292Z" fill="#782B90"/>
<path d="M97.3384 22.8255C97.3384 22.5877 97.517 22.4178 97.7062 22.4178H105.126C105.294 22.4178 105.494 22.5537 105.494 22.8369V36.7327C105.494 36.8346 105.589 36.9139 105.683 36.9139H117.811C118.011 36.9139 118.179 37.0838 118.179 37.3216V44.0713C118.179 44.2638 118.032 44.4677 117.811 44.4677H97.7062C97.5065 44.4677 97.3384 44.2751 97.3384 44.0713V22.8255Z" fill="#782B90"/>
<path d="M145 33.4825C145 29.0544 144.285 25.0227 140.628 23.3579C138.19 22.248 134.017 22.1235 131.894 22.1574C124.769 22.282 120.586 22.735 120.586 22.735C120.407 22.7577 120.25 22.9049 120.25 23.1427V43.8222C120.25 44.06 120.439 44.1959 120.544 44.2073C123.697 44.5923 127.827 44.8188 131.894 44.8188C134.017 44.8188 138.505 44.513 140.628 43.5731C144.306 41.9876 145 37.8992 145 33.4711V33.4825ZM128.363 37.0045V30.1076C128.363 29.9604 128.468 29.9151 128.531 29.9038C129.509 29.8132 130.917 29.7679 132.189 29.7679C136.13 29.7679 136.424 30.6059 136.424 33.607C136.424 36.6082 136.13 37.4462 132.189 37.4462C130.864 37.4462 128.668 37.3103 128.668 37.3103C128.384 37.3103 128.374 37.1857 128.374 37.0045H128.363Z" fill="#782B90"/>
<path d="M57.7587 33.607C57.7587 30.2321 57.0336 29.1223 53.3341 29.1223C49.6347 29.1223 48.878 30.2321 48.878 33.607C48.878 36.9818 49.6242 38.103 53.3341 38.103C57.0441 38.103 57.7587 36.9932 57.7587 33.607ZM66.5449 33.4484C66.5449 37.8765 65.8512 42.214 62.1728 43.7882C60.4492 44.5356 57.4329 45 53.2921 45C49.1513 45 46.1035 44.5356 44.3799 43.7882C40.7015 42.2027 40.0078 37.8652 40.0078 33.4484C40.0078 29.0317 40.7015 24.7055 44.3799 23.1313C46.1035 22.3839 49.1513 21.9196 53.2921 21.9196C57.4329 21.9196 60.4492 22.3839 62.1728 23.1313C65.8512 24.7168 66.5449 29.0204 66.5449 33.4484Z" fill="#782B90"/>
<path d="M95.1104 43.7995C93.0295 41.5571 90.7068 39.3035 88.174 37.1744C88.0689 37.0838 87.9533 36.9818 87.8482 36.8912C87.9848 36.8686 88.1214 36.8459 88.2581 36.8233C91.8419 36.1211 93.7651 32.5311 93.7651 29.7112C93.7651 26.6081 93.0715 23.7768 89.4772 22.6443C86.2927 21.6364 69.4877 22.2253 69.4877 22.2253C69.3195 22.2253 69.1514 22.3839 69.1409 22.6104V44.094C69.1409 44.2865 69.288 44.4903 69.5087 44.4903H76.9496C77.1283 44.4903 77.3069 44.3318 77.3069 44.094V37.1517C77.3069 37.1517 77.3069 37.0385 77.4015 36.9818C77.4751 36.9252 77.5592 36.9479 77.6222 37.0158C77.6537 37.0385 82.8245 41.8176 84.916 44.3771C84.979 44.4564 85.0631 44.5017 85.1682 44.5017H94.8476C95.0053 44.5017 95.0999 44.4224 95.1735 44.2978C95.247 44.1732 95.2365 43.9581 95.0999 43.8221L95.1104 43.7995ZM77.3174 32.6783V28.6919C77.3174 28.6919 77.3174 28.6126 77.37 28.5447C77.4015 28.5107 77.433 28.4881 77.4961 28.4881C78.505 28.4881 79.535 28.4428 80.5649 28.4428C81.5003 28.4428 82.4987 28.4654 83.4131 28.4994C84.6637 28.5334 85.2628 29.1449 85.2628 30.4473C85.2628 32.1007 84.6637 32.8142 83.3605 32.8482C82.4462 32.8822 81.5003 32.8935 80.5755 32.8935C79.5455 32.8935 78.5155 32.8935 77.5066 32.8595C77.4856 32.8595 77.433 32.8595 77.391 32.8029C77.3384 32.7463 77.3385 32.6783 77.3385 32.6783H77.3174Z" fill="#782B90"/>
<path d="M144.79 5.32837H142.614V7.21965H144.79V5.32837Z" fill="#00427A"/>
<path d="M99.6716 12.0554V17.1857H97.2123V12.0554L95.0579 5.32837H97.6643L98.442 8.62395L99.2302 5.32837H101.837L99.6611 12.0554H99.6716Z" fill="#00427A"/>
<path d="M104.506 17.1856L104.412 16.7326C104.033 17.1856 103.613 17.4008 102.761 17.4008C101.858 17.4234 101.206 16.5287 101.227 15.4415L101.248 13.9127C101.29 11.4325 104.422 12.1799 104.422 10.3226C104.422 9.93757 104.401 9.60914 103.991 9.60914C103.581 9.60914 103.476 9.93757 103.476 10.3226V11.0701H101.248V10.3226C101.248 8.71447 102.53 7.95569 103.991 7.95569C105.841 7.95569 106.692 9.07687 106.692 10.3V17.1629H104.496L104.506 17.1856ZM104.39 12.6669C103.865 13.0293 103.487 13.2218 103.487 13.9693V15.0678C103.487 15.6001 103.623 15.8039 103.939 15.8039C104.254 15.8039 104.39 15.6001 104.39 15.0678V12.6669Z" fill="#00427A"/>
<path d="M113.229 14.7735C113.229 16.2004 113.009 17.4009 111.527 17.4009C110.696 17.4009 110.255 17.1177 109.919 16.5855V19.3601H107.743V8.1823H109.919L109.898 9.09963C110.329 8.26157 110.78 8.0011 111.632 8.0011C112.819 8.0011 113.219 9.2242 113.219 10.3794V14.7621L113.229 14.7735ZM110.907 10.5719C110.907 10.1642 110.696 9.93768 110.413 9.93768C110.108 9.93768 109.898 10.1868 109.898 10.6059V14.8641C109.898 15.2718 110.108 15.4983 110.392 15.4983C110.696 15.4983 110.907 15.2718 110.907 14.8414V10.5606V10.5719Z" fill="#00427A"/>
<path d="M114.28 17.1857V8.20496H116.456V17.1857H114.28Z" fill="#00427A"/>
<path d="M121.784 17.1743L120.365 13.018L120.029 13.6749V17.1743H117.57V5.31702H120.029V8.99765L121.595 5.31702H124.033L121.784 10.3114L124.222 17.1743H121.784Z" fill="#00427A"/>
<path d="M129.004 10.6511C128.458 10.4246 126.997 10.402 126.997 11.8516V17.1857H124.821V8.20492H126.85L126.829 9.16755C127.585 8.00107 128.395 7.98975 128.983 7.98975V10.6625H129.004V10.6511Z" fill="#00427A"/>
<path d="M135.121 14.9206C135.121 16.71 133.965 17.4121 132.399 17.4121C130.959 17.4121 129.677 16.6533 129.677 14.8866V10.685C129.677 8.97496 130.644 8.01233 132.399 8.01233C133.839 8.01233 135.121 8.64653 135.121 10.7077V13.0746H131.926V15.2264C131.926 15.5888 132.073 15.7926 132.399 15.7926C132.725 15.7926 132.872 15.5888 132.872 15.2264V13.9013H135.121V14.9319V14.9093V14.9206ZM132.83 10.1981C132.83 9.83566 132.683 9.63181 132.378 9.63181C132.062 9.63181 131.905 9.83566 131.905 10.1981V11.4212H132.851L132.83 10.1981Z" fill="#00427A"/>
<path d="M139.398 17.1857V16.2683C139.188 17.0611 138.516 17.3669 137.696 17.3669C136.351 17.3669 136.088 16.1438 136.088 14.9999V10.6398C136.088 9.21285 136.414 7.9671 137.748 7.9671C138.526 7.9671 139.125 8.3295 139.388 8.7825V5.32837H141.563V17.1857H139.388H139.398ZM139.398 10.5039C139.398 10.0962 139.188 9.86971 138.883 9.89236C138.579 9.89236 138.368 10.1189 138.368 10.5266L138.39 14.8074C138.39 15.2151 138.6 15.4416 138.883 15.4416C139.188 15.4416 139.398 15.1925 139.398 14.7848V10.5039Z" fill="#00427A"/>
<path d="M142.614 17.1969V8.21619H144.79V17.1969H142.614Z" fill="#00427A"/>
<path d="M94.2276 9.60917C92.8193 5.24904 88.7835 5.01121 88.3737 4.99989C86.5765 4.96591 84.5797 5.63409 83.0663 7.23092C82.4567 7.81982 82.0258 8.49932 81.5634 9.24677C81.1115 8.51065 80.67 7.81982 80.0605 7.23092C78.5366 5.63409 76.5397 4.96591 74.7426 4.99989C74.3327 4.99989 70.297 5.24904 68.8886 9.60917C68.3842 11.172 68.4998 13.1879 69.246 14.6715C69.9817 16.3815 71.7578 17.7858 73.6285 17.6386C74.9843 17.6046 76.4662 16.6647 77.0127 15.1698C77.4751 13.8334 77.328 12.3951 76.2665 11.24C76.298 11.5344 76.3085 11.9421 76.0353 12.3159C75.6044 12.9501 74.9317 13.1086 74.2381 12.8368C73.618 12.531 73.3868 12.0554 73.4499 11.4212C73.4919 10.8776 73.8913 10.4699 74.3117 10.266C75.1314 9.88097 75.8881 10.0735 76.6238 10.8323C77.8324 12.2932 77.969 14.4903 78.5471 16.1664C78.957 17.548 79.5981 18.7371 81.0064 19.0882C81.1745 19.1335 81.3532 19.1448 81.5318 19.1448C81.7105 19.1448 81.8892 19.1222 82.0573 19.0882C83.4656 18.7485 84.1172 17.548 84.5166 16.1664C85.0946 14.4903 85.2313 12.2932 86.4399 10.8323C87.1756 10.0735 87.9323 9.88097 88.752 10.266C89.1724 10.4699 89.5718 10.8889 89.6138 11.4212C89.6769 12.0554 89.4457 12.531 88.8256 12.8368C88.1319 13.1086 87.4488 12.9501 87.0284 12.3159C86.7657 11.9421 86.7762 11.5344 86.7972 11.24C85.7357 12.3951 85.5991 13.8221 86.051 15.1698C86.5975 16.6647 88.0794 17.5933 89.4351 17.6386C91.3059 17.7745 93.082 16.3815 93.8177 14.6715C94.5639 13.1879 94.6795 11.1607 94.175 9.60917H94.2276ZM91.3795 14.8074C90.5282 15.6114 89.3826 15.8493 88.4578 15.4076C87.9007 15.1245 87.4908 14.6035 87.3752 14.0599C88.153 14.898 89.5508 15.317 90.8435 13.8561C90.8435 13.8561 92.0521 12.6556 91.3689 10.3906C91.0326 9.26942 89.7504 8.34077 88.6995 8.2162C87.123 7.94439 85.6306 8.52197 84.6007 10.0848C83.3815 12.112 83.2239 14.3657 82.3516 16.6194C82.2045 16.9931 81.8892 17.1516 81.5739 17.129C81.2586 17.1516 80.9538 16.9818 80.7962 16.6194C79.9133 14.3657 79.7662 12.112 78.5471 10.0848C77.5171 8.52197 76.0247 7.94439 74.4483 8.2162C73.3868 8.32945 72.1151 9.2581 71.7788 10.3906C71.0957 12.6556 72.3043 13.8561 72.3043 13.8561C73.5865 15.317 74.9948 14.8866 75.7725 14.0599C75.6464 14.6035 75.247 15.1245 74.69 15.4076C73.7652 15.8606 72.6301 15.6228 71.7683 14.8074C70.5071 13.4597 70.318 11.727 70.8119 10.1301C71.4215 8.19355 73.2397 7.21959 74.69 7.09502C76.4031 6.93647 78.7678 8.06897 79.7137 9.99422C79.9344 10.4359 80.3968 11.5911 80.3968 11.5911H81.5949H82.793C82.793 11.5911 83.2554 10.4359 83.4761 9.99422C84.422 8.05764 86.7867 6.93647 88.4998 7.09502C89.9501 7.21959 91.7683 8.18222 92.3779 10.1301C92.8823 11.727 92.6827 13.4597 91.4215 14.8074H91.3795Z" fill="#A7A9AC"/>
</g>
<defs>
<clipPath id="clip0_2313_46">
<rect width="140" height="40" fill="white" transform="translate(5 5)"/>
</clipPath>
</defs>
</svg>
